<svg width="53" height="53" fill="none" xmlns="http://www.w3.org/2000/svg"><circle cx="26.5" cy="26.5" r="26.5" fill="#F1F1F1"/><path d="M13.796 13.102l12.876-3.075a.98.98 0 01.468.003l12.897 3.08a.996.996 0 01.763.97v13.63c0 2.947-1.625 5.745-3.887 8.104-2.885 3.01-6.854 5.342-9.7 6.306a.98.98 0 01-.627 0c-2.845-.964-6.814-3.296-9.7-6.306C14.626 33.454 13 30.657 13 27.71V14.08c0-.483.342-.886.796-.978h0zm13.104-1.08l-11.916 2.846V27.71c0 2.367 1.392 4.704 3.329 6.725 2.554 2.666 6.012 4.748 8.587 5.69 2.575-.942 6.033-3.024 8.587-5.69 1.938-2.02 3.33-4.358 3.33-6.725V14.868L26.9 12.022h0z" fill="#374148" stroke="#F1F1F1" stroke-width=".6"/><path d="M17.951 16.616l8.72-2.083a.98.98 0 01.47.003l8.741 2.088a.996.996 0 01.763.97v9.587c0 2.091-1.14 4.063-2.725 5.717-1.993 2.08-4.737 3.69-6.706 4.358a.98.98 0 01-.627 0c-1.97-.667-4.714-2.279-6.706-4.358-1.586-1.655-2.726-3.625-2.726-5.717v-9.587c0-.483.342-.887.796-.978h0zm8.95-.088l-7.762 1.854v8.799c0 1.511.906 3.022 2.167 4.338 1.663 1.734 3.899 3.097 5.594 3.739 1.696-.642 3.932-2.005 5.594-3.74 1.262-1.315 2.168-2.826 2.168-4.337v-8.8L26.9 16.529z" fill="#22B0F5" stroke="#F1F1F1" stroke-width=".6"/></svg>