<svg width="37" height="20" fill="none" xmlns="http://www.w3.org/2000/svg"><path fill-rule="evenodd" clip-rule="evenodd" d="M13.222 16.01a1.068 1.068 0 011.517 0 1.07 1.07 0 010 1.516 1.07 1.07 0 01-1.517 0 1.069 1.069 0 010-1.517zm18.263 0a1.068 1.068 0 011.516 0 1.07 1.07 0 010 1.516 1.07 1.07 0 01-1.516 0 1.07 1.07 0 010-1.517zM4.312 18.965A3.101 3.101 0 013.4 16.82H1.933c-.436 0-.832-.177-1.118-.464a1.577 1.577 0 01-.464-1.117V1.987c0-.436.178-.832.464-1.118A1.577 1.577 0 011.933.405h24.704c.436 0 .831.178 1.117.464.287.286.464.682.464 1.118v1.476h4.025c.436 0 .832.178 1.118.464a1.577 1.577 0 01-.003 2.238l.863 3.453a2.603 2.603 0 012.152 2.562v3.058a1.59 1.59 0 01-1.02 1.479l.001.05a3.1 3.1 0 01-.912 2.2 3.1 3.1 0 01-2.199.911 3.1 3.1 0 01-2.198-.912 3.1 3.1 0 01-.912-2.146H17.091a3.101 3.101 0 01-.912 2.146 3.101 3.101 0 01-2.198.912 3.101 3.101 0 01-2.199-.912 3.101 3.101 0 01-.911-2.146H9.62a3.101 3.101 0 01-.911 2.146 3.101 3.101 0 01-2.199.912 3.101 3.101 0 01-2.199-.912zm3.99-4.738a3.12 3.12 0 011.128 1.467h1.63a3.116 3.116 0 012.92-2.038 3.12 3.12 0 012.92 2.039h10.194V1.985a.456.456 0 00-.457-.457H1.933a.455.455 0 00-.457.457v13.252a.456.456 0 00.457.457H3.59a3.116 3.116 0 012.92-2.038 3.1 3.1 0 011.793.571zM5.106 18.17a1.98 1.98 0 002.808 0 1.981 1.981 0 00.001-2.806 1.987 1.987 0 00-3.392 1.402c0 .547.223 1.044.583 1.404zm27.946-8.59l-.738-2.953h-4.096v2.157l1.08-1.079a.562.562 0 11.795.795l-1.08 1.08h4.04zm-.486-4.212a.455.455 0 00-.323-.78h-4.025v.915h4.025c.127 0 .24-.052.323-.134zm-19.99 12.804a1.98 1.98 0 002.807 0 1.981 1.981 0 00.002-2.806 1.986 1.986 0 10-2.81 2.805h.001zm18.263 0a1.98 1.98 0 002.808 0 1.981 1.981 0 00.001-2.806 1.987 1.987 0 00-3.392 1.401c0 .548.223 1.045.583 1.404zm3.153-3.973c.49.334.884.806 1.12 1.366a.449.449 0 00.136-.327v-2.495h-1.476a.56.56 0 01-.562-.563.56.56 0 01.562-.562h1.365a1.484 1.484 0 00-1.365-.914h-5.554v4.991h1.105a3.116 3.116 0 012.92-2.038c.642 0 1.246.198 1.75.541zm-2.656-2.416a.56.56 0 01.794 0 .56.56 0 01-.397.96.56.56 0 01-.397-.96zM5.752 16.01a1.068 1.068 0 011.516 0 1.069 1.069 0 01-.758 1.83 1.07 1.07 0 01-1.073-1.072c0-.296.12-.565.314-.758z" fill="#003C5F"/><path d="M5.808 6.807v3.46c0 .149.052.275.155.378a.522.522 0 00.379.156.51.51 0 00.375-.156.516.516 0 00.155-.378v-3.46h1.132a.522.522 0 00.378-.155.51.51 0 00.156-.375.51.51 0 00-.156-.375.516.516 0 00-.378-.159H4.679a.51.51 0 00-.378.159.512.512 0 00-.155.375.51.51 0 00.155.375c.104.103.23.155.378.155h1.129zm6.778.801a.769.769 0 01-.236.564.768.768 0 01-.564.233h-1.463V6.807h1.463c.22 0 .408.08.564.237a.763.763 0 01.236.564zm-1.02 1.862l1.175 1.175a.51.51 0 00.375.156.522.522 0 00.379-.156.515.515 0 00.155-.378.51.51 0 00-.155-.375l-.713-.713c.265-.169.475-.39.628-.662.16-.282.24-.584.24-.909 0-.513-.182-.952-.547-1.317a1.796 1.796 0 00-1.317-.548H9.792a.51.51 0 00-.378.159.51.51 0 00-.155.375v3.99a.51.51 0 00.155.378c.103.104.23.156.378.156a.51.51 0 00.375-.156.514.514 0 00.156-.378V9.47h1.243zm3.288-3.693a.515.515 0 00-.253.193.52.52 0 00-.098.307v3.99c0 .149.051.275.155.379.104.103.23.155.379.155a.51.51 0 00.374-.155.514.514 0 00.156-.379v-2.52l2.385 2.861a.506.506 0 00.408.193.51.51 0 00.436-.226.52.52 0 00.098-.308v-3.99a.509.509 0 00-.155-.375.516.516 0 00-.379-.158.505.505 0 00-.374.159.512.512 0 00-.156.374v2.52l-2.385-2.86a.525.525 0 00-.27-.173.522.522 0 00-.32.014zm5.427 3.96a.514.514 0 00-.378.155.51.51 0 00-.156.375c0 .149.052.275.156.378.103.104.23.156.378.156h2.328c.421 0 .781-.15 1.08-.45.3-.299.45-.66.45-1.08 0-.422-.15-.782-.45-1.081-.3-.3-.659-.45-1.08-.45h-1.331a.445.445 0 01-.328-.135.453.453 0 01-.138-.331.44.44 0 01.138-.328c.09-.092.2-.138.328-.138h2.327a.522.522 0 00.379-.156.512.512 0 00.155-.375.51.51 0 00-.155-.375.516.516 0 00-.379-.158h-2.327c-.421 0-.782.15-1.081.45-.3.299-.45.659-.45 1.08 0 .423.15.784.45 1.081.3.3.66.45 1.08.45h1.332a.44.44 0 01.327.138c.093.09.139.199.139.327a.453.453 0 01-.139.332.445.445 0 01-.327.135H20.28z" fill="#003C5F"/></svg>