<svg width="30" height="25" fill="none" xmlns="http://www.w3.org/2000/svg"><path fill-rule="evenodd" clip-rule="evenodd" d="M3.355 5.576c-.862 0-1.57.708-1.57 1.57v14.776c0 .862.708 1.57 1.57 1.57h22.733c.862 0 1.57-.708 1.57-1.57V7.146c0-.862-.708-1.57-1.57-1.57H3.355zM.378 7.146a2.983 2.983 0 012.977-2.977h22.733a2.983 2.983 0 012.977 2.977v14.776a2.983 2.983 0 01-2.977 2.977H3.355a2.983 2.983 0 01-2.977-2.977V7.146z" fill="#003C5F"/><path fill-rule="evenodd" clip-rule="evenodd" d="M3.355 5.576c-.862 0-1.57.708-1.57 1.57v.682a5.409 5.409 0 005.435 5.434h2.693a.703.703 0 110 1.407H7.22A6.815 6.815 0 01.378 7.828v-.682A2.983 2.983 0 013.355 4.17h22.733a2.983 2.983 0 012.977 2.977v.682a6.815 6.815 0 01-6.841 6.841h-2.775a.703.703 0 010-1.407h2.775a5.409 5.409 0 005.434-5.434v-.682c0-.862-.708-1.57-1.57-1.57H3.355zm14.492-2.213c-.693-.987-1.807-1.593-3.118-1.578h-.008a3.801 3.801 0 00-3.144 1.638.703.703 0 01-1.152-.807A5.208 5.208 0 0114.717.379c1.78-.02 3.325.815 4.281 2.176a.703.703 0 11-1.151.808z" fill="#003C5F"/><path fill-rule="evenodd" clip-rule="evenodd" d="M14.722 8.839a2.192 2.192 0 100 4.385 2.192 2.192 0 000-4.385zm-3.658 2.192a3.658 3.658 0 117.316 0 3.658 3.658 0 01-7.316 0z" fill="#003C5F"/><path fill-rule="evenodd" clip-rule="evenodd" d="M14.722 14.69a2.61 2.61 0 100 5.22 2.61 2.61 0 000-5.22zm-4.076 2.61a4.076 4.076 0 118.151 0 4.076 4.076 0 01-8.151 0z" fill="#003C5F"/></svg>