<svg xmlns="http://www.w3.org/2000/svg" xmlns:xlink="http://www.w3.org/1999/xlink" width="0" height="0" style="position:absolute">
    <defs>
      
        <svg width="31" height="33" viewBox="0 0 31 33" id="phone-icon" y="0"><path d="M27.5 3.209C26.69 2.454 23.407.056 16.095.024c0 0-8.622-.524-12.825 3.357C.929 5.736.106 9.182.019 13.455c-.087 4.273-.199 12.28 7.47 14.451h.008l-.005 3.314s-.05 1.34.828 1.614c1.062.332 1.685-.687 2.698-1.786a86.626 86.626 0 0 0 1.903-2.167c5.245.444 9.28-.571 9.737-.721 1.06-.346 7.052-1.119 8.027-9.125 1.006-8.253-.487-13.473-3.184-15.826zm.89 15.234c-.823 6.685-5.684 7.105-6.58 7.394-.38.124-3.924 1.011-8.38.718 0 0-3.319 4.031-4.356 5.08-.162.163-.352.23-.48.197-.178-.044-.227-.257-.225-.568l.029-5.506s-.004 0 0 0c-6.488-1.812-6.11-8.627-6.036-12.196.073-3.57.74-6.493 2.718-8.459 3.556-3.24 10.88-2.757 10.88-2.757 6.184.028 9.148 1.902 9.835 2.53 2.282 1.966 3.445 6.671 2.595 13.565v.002z"></path><path fill-rule="evenodd" clip-rule="evenodd" d="M16.45 10.563c.01-.257.198-.453.416-.44.819.05 1.5.34 1.984.927.483.584.72 1.4.762 2.381.01.256-.158.474-.377.487-.218.013-.405-.185-.415-.44-.036-.84-.233-1.412-.54-1.783-.305-.37-.77-.603-1.455-.645-.219-.013-.387-.232-.375-.488z"></path><path fill-rule="evenodd" clip-rule="evenodd" d="M15.817 8.609c.016-.228.203-.4.417-.383 1.634.127 2.95.722 3.909 1.836.948 1.103 1.398 2.475 1.366 4.084-.005.228-.183.41-.398.405-.215-.005-.386-.194-.38-.423.028-1.42-.364-2.578-1.163-3.507-.796-.925-1.909-1.453-3.39-1.569-.215-.016-.376-.215-.36-.443z"></path><path fill-rule="evenodd" clip-rule="evenodd" d="M15.184 6.113a.415.415 0 0 1 .412-.42c2.375.018 4.383.832 5.995 2.451 1.626 1.633 2.43 3.855 2.45 6.615a.416.416 0 0 1-.406.425.415.415 0 0 1-.413-.419c-.019-2.586-.766-4.574-2.202-6.017-1.45-1.456-3.25-2.195-5.43-2.21a.416.416 0 0 1-.406-.425z"></path><path d="M16.853 18.902s.581.05.894-.336l.61-.768c.295-.38 1.006-.624 1.701-.236.522.297 1.028.62 1.517.968.462.34 1.407 1.129 1.41 1.129.45.38.555.939.248 1.527l-.003.013a6.37 6.37 0 0 1-1.27 1.564c-.006.003-.006.006-.011.009-.438.365-.868.573-1.29.623a.855.855 0 0 1-.189.012 1.717 1.717 0 0 1-.548-.084l-.014-.02c-.65-.184-1.737-.643-3.546-1.641a21.13 21.13 0 0 1-2.98-1.968c-.468-.37-.916-.767-1.34-1.188l-.045-.046-.045-.045-.045-.045-.045-.045c-.422-.424-.818-.871-1.189-1.34a21.148 21.148 0 0 1-1.968-2.979c-.998-1.81-1.457-2.895-1.64-3.546l-.02-.014a1.718 1.718 0 0 1-.085-.548.828.828 0 0 1 .012-.189c.052-.421.26-.852.624-1.29.003-.006.006-.006.01-.012.45-.504.978-.932 1.564-1.27l.012-.003c.589-.306 1.147-.202 1.527.246.003.003.79.948 1.128 1.41.348.49.672.996.969 1.518.388.695.145 1.407-.236 1.7l-.768.61c-.388.314-.337.895-.337.895s1.138 4.305 5.388 5.39z"></path></svg>
      
        <svg width="53" height="53" viewBox="0 0 53 53" id="safety-icon" y="33"><circle cx="26.5" cy="26.5" r="26.5"></circle><path d="M13.796 13.102l12.876-3.075a.98.98 0 0 1 .468.003l12.897 3.08a.996.996 0 0 1 .763.97v13.63c0 2.947-1.625 5.745-3.887 8.104-2.885 3.01-6.854 5.342-9.7 6.306a.98.98 0 0 1-.627 0c-2.845-.964-6.814-3.296-9.7-6.306C14.626 33.454 13 30.657 13 27.71V14.08c0-.483.342-.886.796-.978zm13.104-1.08l-11.916 2.846V27.71c0 2.367 1.392 4.704 3.329 6.725 2.554 2.666 6.012 4.748 8.587 5.69 2.575-.942 6.033-3.024 8.587-5.69 1.938-2.02 3.33-4.358 3.33-6.725V14.868L26.9 12.022z"></path><path d="M17.951 16.616l8.72-2.083a.98.98 0 0 1 .47.003l8.741 2.088a.996.996 0 0 1 .763.97v9.587c0 2.091-1.14 4.063-2.725 5.717-1.993 2.08-4.737 3.69-6.706 4.358a.98.98 0 0 1-.627 0c-1.97-.667-4.714-2.279-6.706-4.358-1.586-1.655-2.726-3.625-2.726-5.717v-9.587c0-.483.342-.887.796-.978zm8.95-.088l-7.762 1.854v8.799c0 1.511.906 3.022 2.167 4.338 1.663 1.734 3.899 3.097 5.594 3.739 1.696-.642 3.932-2.005 5.594-3.74 1.262-1.315 2.168-2.826 2.168-4.337v-8.8L26.9 16.529z"></path></svg>
      
        <svg width="30" height="30" viewBox="0 0 30 30" id="tel-icon" y="86"><path d="M25.091 4.405A14.378 14.378 0 0 0 14.856.163C6.88.163.39 6.651.386 14.627a14.436 14.436 0 0 0 1.932 7.231L.265 29.353l7.67-2.01a14.464 14.464 0 0 0 6.915 1.76h.006c7.974 0 14.466-6.49 14.469-14.465a14.375 14.375 0 0 0-4.234-10.233zM14.856 26.66h-.005a12.01 12.01 0 0 1-6.121-1.676l-.44-.26-4.55 1.193 1.214-4.436-.286-.455a11.992 11.992 0 0 1-1.839-6.398C2.832 7.999 8.227 2.606 14.861 2.606a11.947 11.947 0 0 1 8.502 3.526 11.948 11.948 0 0 1 3.519 8.505c-.003 6.63-5.398 12.023-12.026 12.023zm6.597-9.004c-.362-.181-2.14-1.056-2.47-1.176-.332-.12-.573-.181-.814.18-.241.363-.934 1.177-1.145 1.418-.211.241-.422.271-.783.09-.362-.18-1.527-.562-2.908-1.794-1.075-.958-1.8-2.141-2.011-2.503-.21-.362-.022-.558.159-.738.162-.162.361-.422.542-.633.18-.211.24-.362.361-.603.12-.241.06-.452-.03-.633s-.813-1.96-1.114-2.684c-.294-.705-.592-.61-.814-.62-.21-.01-.452-.013-.693-.013-.24 0-.633.09-.964.452-.331.362-1.265 1.237-1.265 3.015 0 1.78 1.295 3.498 1.476 3.74.18.24 2.55 3.891 6.176 5.456a20.77 20.77 0 0 0 2.061.762c.866.275 1.654.236 2.277.143.695-.104 2.14-.874 2.44-1.718.302-.845.302-1.568.211-1.72-.09-.15-.331-.24-.692-.421z"></path></svg>
      
        <svg width="37" height="20" viewBox="0 0 37 20" id="transport-icon" y="116"><path fill-rule="evenodd" clip-rule="evenodd" d="M13.222 16.01a1.068 1.068 0 0 1 1.517 0 1.07 1.07 0 0 1 0 1.516 1.07 1.07 0 0 1-1.517 0 1.069 1.069 0 0 1 0-1.517zm18.263 0a1.068 1.068 0 0 1 1.516 0 1.07 1.07 0 0 1 0 1.516 1.07 1.07 0 0 1-1.516 0 1.07 1.07 0 0 1 0-1.517zM4.312 18.965A3.101 3.101 0 0 1 3.4 16.82H1.933c-.436 0-.832-.177-1.118-.464a1.577 1.577 0 0 1-.464-1.117V1.987c0-.436.178-.832.464-1.118A1.577 1.577 0 0 1 1.933.405h24.704c.436 0 .831.178 1.117.464.287.286.464.682.464 1.118v1.476h4.025c.436 0 .832.178 1.118.464a1.577 1.577 0 0 1-.003 2.238l.863 3.453a2.603 2.603 0 0 1 2.152 2.562v3.058a1.59 1.59 0 0 1-1.02 1.479l.001.05a3.1 3.1 0 0 1-.912 2.2 3.1 3.1 0 0 1-2.199.911 3.1 3.1 0 0 1-2.198-.912 3.1 3.1 0 0 1-.912-2.146H17.091a3.101 3.101 0 0 1-.912 2.146 3.101 3.101 0 0 1-2.198.912 3.101 3.101 0 0 1-2.199-.912 3.101 3.101 0 0 1-.911-2.146H9.62a3.101 3.101 0 0 1-.911 2.146 3.101 3.101 0 0 1-2.199.912 3.101 3.101 0 0 1-2.199-.912zm3.99-4.738a3.12 3.12 0 0 1 1.128 1.467h1.63a3.116 3.116 0 0 1 2.92-2.038 3.12 3.12 0 0 1 2.92 2.039h10.194V1.985a.456.456 0 0 0-.457-.457H1.933a.455.455 0 0 0-.457.457v13.252a.456.456 0 0 0 .457.457H3.59a3.116 3.116 0 0 1 2.92-2.038 3.1 3.1 0 0 1 1.793.571zm-3.196 3.943a1.98 1.98 0 0 0 2.808 0 1.981 1.981 0 0 0 .001-2.806 1.987 1.987 0 0 0-3.392 1.402c0 .547.223 1.044.583 1.404zM33.052 9.58l-.738-2.953h-4.096v2.157l1.08-1.079a.562.562 0 1 1 .795.795l-1.08 1.08h4.04zm-.486-4.212a.455.455 0 0 0-.323-.78h-4.025v.915h4.025c.127 0 .24-.052.323-.134zm-19.99 12.804a1.98 1.98 0 0 0 2.807 0 1.981 1.981 0 0 0 .002-2.806 1.986 1.986 0 1 0-2.81 2.805h.001zm18.263 0a1.98 1.98 0 0 0 2.808 0 1.981 1.981 0 0 0 .001-2.806 1.987 1.987 0 0 0-3.392 1.401c0 .548.223 1.045.583 1.404zm3.153-3.973c.49.334.884.806 1.12 1.366a.449.449 0 0 0 .136-.327v-2.495h-1.476a.56.56 0 0 1-.562-.563.56.56 0 0 1 .562-.562h1.365a1.484 1.484 0 0 0-1.365-.914h-5.554v4.991h1.105a3.116 3.116 0 0 1 2.92-2.038c.642 0 1.246.198 1.75.541zm-2.656-2.416a.56.56 0 0 1 .794 0 .56.56 0 0 1-.397.96.56.56 0 0 1-.397-.96zM5.752 16.01a1.068 1.068 0 0 1 1.516 0 1.069 1.069 0 0 1-.758 1.83 1.07 1.07 0 0 1-1.073-1.072c0-.296.12-.565.314-.758z"></path><path d="M5.808 6.807v3.46c0 .149.052.275.155.378a.522.522 0 0 0 .379.156.51.51 0 0 0 .375-.156.516.516 0 0 0 .155-.378v-3.46h1.132a.522.522 0 0 0 .378-.155.51.51 0 0 0 .156-.375.51.51 0 0 0-.156-.375.516.516 0 0 0-.378-.159H4.679a.51.51 0 0 0-.378.159.512.512 0 0 0-.155.375.51.51 0 0 0 .155.375c.104.103.23.155.378.155h1.129zm6.778.801a.769.769 0 0 1-.236.564.768.768 0 0 1-.564.233h-1.463V6.807h1.463c.22 0 .408.08.564.237a.763.763 0 0 1 .236.564zm-1.02 1.862l1.175 1.175a.51.51 0 0 0 .375.156.522.522 0 0 0 .379-.156.515.515 0 0 0 .155-.378.51.51 0 0 0-.155-.375l-.713-.713c.265-.169.475-.39.628-.662.16-.282.24-.584.24-.909 0-.513-.182-.952-.547-1.317a1.796 1.796 0 0 0-1.317-.548H9.792a.51.51 0 0 0-.378.159.51.51 0 0 0-.155.375v3.99c0 .149.051.275.155.378.103.104.23.156.378.156a.51.51 0 0 0 .375-.156.514.514 0 0 0 .156-.378V9.47h1.243zm3.288-3.693a.515.515 0 0 0-.253.193.52.52 0 0 0-.098.307v3.99c0 .149.051.275.155.379.104.103.23.155.379.155a.51.51 0 0 0 .374-.155.514.514 0 0 0 .156-.379v-2.52l2.385 2.861a.506.506 0 0 0 .408.193.51.51 0 0 0 .436-.226.52.52 0 0 0 .098-.308v-3.99a.509.509 0 0 0-.155-.375.516.516 0 0 0-.379-.158.505.505 0 0 0-.374.159.512.512 0 0 0-.156.374v2.52l-2.385-2.86a.525.525 0 0 0-.27-.173.522.522 0 0 0-.32.014zm5.427 3.96a.514.514 0 0 0-.378.155.51.51 0 0 0-.156.375c0 .149.052.275.156.378.103.104.23.156.378.156h2.328c.421 0 .781-.15 1.08-.45.3-.299.45-.66.45-1.08 0-.422-.15-.782-.45-1.081-.3-.3-.659-.45-1.08-.45h-1.331a.445.445 0 0 1-.328-.135.453.453 0 0 1-.138-.331.44.44 0 0 1 .138-.328c.09-.092.2-.138.328-.138h2.327a.522.522 0 0 0 .379-.156.512.512 0 0 0 .155-.375.51.51 0 0 0-.155-.375.516.516 0 0 0-.379-.158h-2.327c-.421 0-.782.15-1.081.45-.3.299-.45.659-.45 1.08 0 .423.15.784.45 1.081.3.3.66.45 1.08.45h1.332a.44.44 0 0 1 .327.138c.093.09.139.199.139.327a.453.453 0 0 1-.139.332c-.09.09-.199.135-.327.135H20.28z"></path></svg>
      
        <svg width="15" height="13" viewBox="0 0 15 13" id="tw-icon" y="136"><path fill-rule="evenodd" clip-rule="evenodd" d="M13.08 2.006l.943.11-.424.85-.621 1.243a.982.982 0 0 1-.132.264c-.026.042-.117.175-.122.182a1.381 1.381 0 0 0-.054.087v1.593c0 4.074-3.944 6.663-7.668 6.663-.762 0-1.34-.036-2.004-.18-1.09-.239-1.903-.712-2.274-1.54l-.383-.85.93-.086c.84-.078 1.57-.238 2.13-.452-1.537-.248-2.399-.923-2.399-2.19v-.667h.667c.146 0 .279-.012.397-.034C.912 6.31.334 5.203.334 3.668v-.136C.329 2.76.37 2.345.583 1.818c.135-.338.331-.651.596-.938l.503-.547.489.56c1.612 1.842 3.205 2.96 4.832 3.094.007-1.7 1.291-2.986 3-2.986.796 0 1.519.303 2.087.848.31.064.64.116.99.157zm-1.474 1.102l-.205-.046-.14-.155c-.342-.374-.77-.572-1.258-.572-.976 0-1.667.694-1.667 1.666 0 .159-.004.259-.024.39-.079.523-.372.944-.976.944-1.999 0-3.802-1.071-5.56-2.9-.09.276-.112.559-.11 1.09l.001.143c0 1.365.554 2.112 1.863 2.528l.465.148v.488c0 .591-.56 1.148-1.38 1.397.376.285 1.144.439 2.388.439h.666v.667c0 .955-1.097 1.702-2.755 2.093.54.166 1.26.237 2.088.237 3.077 0 6.334-2.139 6.334-5.33V4.668c0-.196.057-.366.151-.543.037-.069.078-.135.128-.21l.072-.106.053-.106.257-.514a11.2 11.2 0 0 1-.391-.08z"></path></svg>
      
        <svg width="30" height="25" viewBox="0 0 30 25" id="work-icon" y="149"><path fill-rule="evenodd" clip-rule="evenodd" d="M3.355 5.576c-.862 0-1.57.708-1.57 1.57v14.776c0 .862.708 1.57 1.57 1.57h22.733c.862 0 1.57-.708 1.57-1.57V7.146c0-.862-.708-1.57-1.57-1.57H3.355zM.378 7.146a2.983 2.983 0 0 1 2.977-2.977h22.733a2.983 2.983 0 0 1 2.977 2.977v14.776a2.983 2.983 0 0 1-2.977 2.977H3.355a2.983 2.983 0 0 1-2.977-2.977V7.146z"></path><path fill-rule="evenodd" clip-rule="evenodd" d="M3.355 5.576c-.862 0-1.57.708-1.57 1.57v.682a5.409 5.409 0 0 0 5.435 5.434h2.693a.703.703 0 1 1 0 1.407H7.22A6.815 6.815 0 0 1 .378 7.828v-.682A2.983 2.983 0 0 1 3.355 4.17h22.733a2.983 2.983 0 0 1 2.977 2.977v.682a6.815 6.815 0 0 1-6.841 6.841h-2.775a.703.703 0 0 1 0-1.407h2.775a5.409 5.409 0 0 0 5.434-5.434v-.682c0-.862-.708-1.57-1.57-1.57H3.355zM17.847 3.363c-.693-.987-1.807-1.593-3.118-1.578h-.008a3.801 3.801 0 0 0-3.144 1.638.703.703 0 0 1-1.152-.807A5.208 5.208 0 0 1 14.717.379c1.78-.02 3.325.815 4.281 2.176a.703.703 0 1 1-1.151.808z"></path><path fill-rule="evenodd" clip-rule="evenodd" d="M14.722 8.839a2.192 2.192 0 1 0 0 4.385 2.192 2.192 0 0 0 0-4.385zm-3.658 2.192a3.658 3.658 0 1 1 7.316 0 3.658 3.658 0 0 1-7.316 0z"></path><path fill-rule="evenodd" clip-rule="evenodd" d="M14.722 14.69a2.61 2.61 0 1 0 0 5.22 2.61 2.61 0 0 0 0-5.22zm-4.076 2.61a4.076 4.076 0 1 1 8.151 0 4.076 4.076 0 0 1-8.151 0z"></path></svg>
      
  </defs>
</svg>
